<svg id="svg" version="1.1" xmlns="http://www.w3.org/2000/svg" xmlns:xlink="http://www.w3.org/1999/xlink" width="400" height="143.03128809427062" viewBox="0, 0, 400,143.03128809427062"><g id="svgg"><path id="path0" d="M67.417 12.931 C 64.021 13.260,62.766 13.415,60.739 13.754 C 23.935 19.914,0.580 58.310,12.030 93.833 C 24.719 133.200,71.164 149.782,105.500 127.204 C 145.210 101.092,142.350 42.001,100.308 19.933 C 90.545 14.809,77.250 11.979,67.417 12.931 M30.667 58.071 C 35.050 59.078,37.393 61.724,37.614 65.917 C 37.809 69.610,36.280 72.628,33.479 74.078 L 32.542 74.564 33.734 75.082 C 38.574 77.186,40.351 82.362,37.896 87.207 C 35.895 91.156,32.690 92.158,22.042 92.163 L 15.500 92.167 15.500 74.904 L 15.500 57.641 22.458 57.712 C 28.269 57.771,29.623 57.831,30.667 58.071 M59.000 72.413 L 59.000 87.159 61.792 87.204 L 64.583 87.250 64.629 89.708 L 64.676 92.167 56.338 92.167 L 48.000 92.167 48.000 89.667 L 48.000 87.167 50.667 87.167 L 53.333 87.167 53.333 74.917 L 53.333 62.667 50.667 62.667 L 48.000 62.667 48.000 60.167 L 48.000 57.667 53.500 57.667 L 59.000 57.667 59.000 72.413 M163.500 74.903 L 163.500 92.167 166.167 92.167 L 168.833 92.167 168.833 85.167 L 168.833 78.167 172.721 78.167 C 179.259 78.167,181.889 77.437,184.349 74.941 C 187.619 71.624,187.524 64.254,184.167 60.847 C 181.613 58.256,179.607 57.793,170.542 57.706 L 163.500 57.639 163.500 74.903 M230.333 61.000 L 230.333 64.333 233.583 64.333 L 236.833 64.333 236.833 61.000 L 236.833 57.667 233.583 57.667 L 230.333 57.667 230.333 61.000 M286.000 62.583 L 286.000 67.500 283.250 67.500 L 280.500 67.500 280.500 70.000 L 280.500 72.500 283.238 72.500 L 285.975 72.500 286.036 78.792 L 286.097 85.083 286.547 86.430 C 289.482 95.221,302.755 94.788,305.022 85.827 C 305.432 84.204,305.691 84.461,303.029 83.846 C 300.379 83.234,300.500 83.241,300.498 83.708 C 300.496 84.181,299.776 85.742,299.229 86.459 C 297.821 88.305,293.840 88.297,292.426 86.444 C 291.559 85.307,291.500 84.796,291.500 78.390 L 291.500 72.500 296.667 72.500 L 301.833 72.500 301.833 70.000 L 301.833 67.500 296.667 67.500 L 291.500 67.500 291.500 62.583 L 291.500 57.667 288.750 57.667 L 286.000 57.667 286.000 62.583 M203.940 59.175 C 202.837 59.496,202.333 60.425,202.333 62.134 L 202.333 63.279 200.879 63.638 C 190.019 66.319,185.635 79.992,192.918 88.469 C 202.287 99.374,220.000 92.897,220.000 78.565 C 220.000 71.248,214.982 64.977,207.964 63.526 L 206.667 63.257 206.667 62.029 C 206.667 59.847,205.571 58.701,203.940 59.175 M205.488 60.439 C 205.823 60.865,205.833 61.060,205.833 66.927 L 205.833 72.976 205.394 73.321 C 204.847 73.752,204.320 73.761,203.810 73.348 L 203.417 73.030 203.369 66.907 C 203.321 60.788,203.322 60.784,203.690 60.392 C 204.208 59.840,205.034 59.862,205.488 60.439 M21.000 67.401 L 21.000 72.167 23.458 72.164 C 30.097 72.156,31.955 71.191,32.133 67.658 C 32.324 63.859,30.785 62.820,24.792 62.707 L 21.000 62.635 21.000 67.401 M177.691 63.001 C 180.211 63.796,181.243 65.226,181.240 67.917 C 181.234 72.110,179.181 73.329,172.125 73.332 L 168.833 73.333 168.833 68.000 L 168.833 62.667 172.732 62.667 C 176.171 62.667,176.757 62.706,177.691 63.001 M202.422 67.080 C 202.574 68.494,202.543 68.547,201.332 68.961 C 190.653 72.607,193.370 88.667,204.667 88.667 C 216.034 88.667,218.663 72.549,207.887 68.925 L 206.750 68.542 206.701 67.271 C 206.644 65.781,206.621 65.793,208.441 66.350 C 222.312 70.596,219.181 91.248,204.667 91.248 C 190.219 91.248,187.011 70.889,200.750 66.396 C 202.348 65.874,202.291 65.851,202.422 67.080 M119.069 67.409 C 124.561 68.802,128.195 73.709,128.610 80.292 L 128.717 82.000 118.372 82.000 L 108.027 82.000 108.199 82.625 C 109.701 88.079,118.178 89.674,123.110 85.430 C 123.990 84.672,123.779 84.557,125.251 86.601 C 126.887 88.872,126.863 88.645,125.570 89.718 C 118.974 95.194,107.666 93.242,103.916 85.981 C 98.572 75.634,107.647 64.511,119.069 67.409 M263.782 67.250 C 261.060 67.998,258.987 69.946,258.005 72.677 L 257.679 73.583 257.673 70.542 L 257.667 67.500 254.917 67.500 L 252.167 67.500 252.167 79.833 L 252.167 92.167 254.917 92.167 L 257.667 92.167 257.667 85.743 C 257.667 78.611,257.766 77.650,258.706 75.671 C 260.837 71.189,267.182 70.420,268.530 74.480 C 268.672 74.908,268.748 77.574,268.791 83.625 L 268.853 92.167 271.519 92.167 L 274.185 92.167 274.126 83.042 C 274.062 72.989,274.069 73.064,272.973 70.876 C 271.453 67.844,267.416 66.251,263.782 67.250 M80.204 76.125 C 80.249 82.875,80.310 84.877,80.487 85.333 C 81.936 89.075,87.785 88.465,89.982 84.342 C 91.105 82.235,91.201 81.486,91.291 74.125 L 91.372 67.500 94.103 67.500 L 96.833 67.500 96.833 79.833 L 96.833 92.167 94.083 92.167 L 91.333 92.167 91.329 89.208 L 91.325 86.250 90.938 87.193 C 87.735 94.980,77.327 94.779,75.130 86.887 C 74.781 85.635,74.764 85.222,74.706 76.542 L 74.646 67.500 77.397 67.500 L 80.148 67.500 80.204 76.125 M225.500 70.000 L 225.500 72.500 228.167 72.500 L 230.833 72.500 230.833 79.917 L 230.833 87.333 228.167 87.333 L 225.500 87.333 225.500 89.750 L 225.500 92.167 233.750 92.167 L 242.000 92.167 242.000 89.750 L 242.000 87.333 239.167 87.333 L 236.333 87.333 236.333 77.417 L 236.333 67.500 230.917 67.500 L 225.500 67.500 225.500 70.000 M114.158 72.007 C 111.807 72.361,109.812 73.673,108.877 75.478 C 107.918 77.332,107.281 77.167,115.403 77.167 L 122.473 77.167 122.305 76.542 C 121.491 73.507,117.808 71.457,114.158 72.007 M21.000 82.167 L 21.000 87.167 24.715 87.167 C 31.296 87.167,33.333 85.985,33.333 82.167 C 33.333 78.348,31.287 77.174,24.625 77.169 L 21.000 77.167 21.000 82.167 M380.333 118.752 L 380.333 129.837 386.708 129.794 L 393.083 129.750 393.126 118.708 L 393.169 107.667 386.751 107.667 L 380.333 107.667 380.333 118.752 M191.167 112.360 C 188.564 114.224,188.605 114.185,188.878 114.559 C 189.057 114.803,192.993 112.894,193.952 112.098 C 193.971 112.082,193.821 111.798,193.619 111.468 L 193.250 110.868 191.167 112.360 M151.703 119.883 C 149.294 124.760,147.325 128.797,147.328 128.855 C 147.334 128.981,148.322 129.406,148.395 129.314 C 148.477 129.212,157.167 111.628,157.167 111.565 C 157.167 111.505,156.219 110.994,156.133 111.008 C 156.106 111.012,154.112 115.006,151.703 119.883 M173.333 119.099 L 173.333 126.697 176.542 126.636 C 182.384 126.524,184.177 124.596,183.953 118.667 C 183.746 113.157,181.925 111.500,176.075 111.500 L 173.333 111.500 173.333 119.099 M227.000 112.167 L 227.000 112.833 228.250 112.833 L 229.500 112.833 229.500 119.083 L 229.500 125.333 228.250 125.333 L 227.000 125.333 227.000 126.000 L 227.000 126.667 230.250 126.667 L 233.500 126.667 233.500 126.000 L 233.500 125.333 232.250 125.333 L 231.000 125.333 231.000 118.417 L 231.000 111.500 229.000 111.500 L 227.000 111.500 227.000 112.167 M331.500 113.667 L 331.500 115.833 330.250 115.833 L 329.000 115.833 329.000 116.493 L 329.000 117.152 330.208 117.201 L 331.417 117.250 331.500 120.750 C 331.589 124.504,331.634 124.713,332.566 125.716 C 334.076 127.343,337.331 127.233,338.895 125.502 C 339.709 124.601,340.106 123.169,339.542 123.164 C 339.381 123.163,339.081 123.117,338.875 123.062 C 338.597 122.987,338.500 123.032,338.500 123.237 C 338.500 124.956,335.944 126.180,334.327 125.235 C 333.156 124.551,333.006 123.999,333.003 120.375 L 333.000 117.167 335.250 117.167 L 337.500 117.167 337.500 116.500 L 337.500 115.833 335.250 115.833 L 333.000 115.833 333.000 113.667 L 333.000 111.500 332.250 111.500 L 331.500 111.500 331.500 113.667 M354.333 111.709 C 354.333 112.091,356.764 125.782,356.937 126.375 C 357.027 126.681,358.833 126.829,358.833 126.530 C 358.833 126.255,360.180 119.907,360.302 119.609 C 360.383 119.409,360.688 120.591,361.171 122.984 L 361.915 126.667 362.838 126.667 L 363.762 126.667 365.062 119.458 C 365.778 115.494,366.402 112.081,366.450 111.875 C 366.531 111.524,366.482 111.500,365.698 111.500 C 364.917 111.500,364.854 111.531,364.768 111.958 C 364.567 112.960,362.833 123.321,362.833 123.520 C 362.833 124.392,362.431 122.844,361.819 119.617 L 361.098 115.818 360.341 115.867 L 359.583 115.917 358.842 119.870 C 358.434 122.044,358.065 123.787,358.021 123.743 C 357.977 123.700,357.481 120.946,356.919 117.624 L 355.897 111.583 355.115 111.533 C 354.540 111.495,354.333 111.542,354.333 111.709 M383.167 114.083 C 383.167 116.413,383.266 117.013,383.571 116.519 C 384.541 114.951,389.041 115.491,390.516 117.353 C 394.439 122.307,388.954 129.547,383.792 126.230 L 383.167 125.829 383.167 126.248 C 383.167 126.639,383.112 126.667,382.333 126.667 L 381.500 126.667 381.500 119.083 L 381.500 111.500 382.333 111.500 L 383.167 111.500 383.167 114.083 M180.060 113.236 C 182.853 114.623,183.422 121.757,180.937 124.238 C 180.035 125.138,179.307 125.333,176.856 125.333 L 174.833 125.333 174.833 119.071 L 174.833 112.808 177.125 112.862 C 178.972 112.906,179.542 112.979,180.060 113.236 M138.999 118.251 L 136.086 121.168 139.041 124.123 L 141.997 127.079 142.454 126.622 L 142.911 126.165 140.372 123.622 L 137.833 121.079 140.329 118.588 L 142.825 116.096 142.467 115.715 C 141.979 115.196,142.242 115.004,138.999 118.251 M161.867 115.715 L 161.508 116.096 164.004 118.588 L 166.500 121.079 163.961 123.622 L 161.422 126.165 161.880 126.622 L 162.337 127.079 165.292 124.123 L 168.248 121.168 165.334 118.251 C 162.091 115.004,162.354 115.196,161.867 115.715 M189.016 116.030 C 185.515 117.375,184.665 122.792,187.540 125.443 C 189.749 127.479,194.348 127.246,195.804 125.025 C 196.055 124.641,196.046 124.605,195.589 124.241 L 195.110 123.859 194.651 124.350 C 192.410 126.749,188.113 125.575,187.423 122.375 L 187.307 121.833 192.011 121.833 L 196.715 121.833 196.617 120.781 C 196.243 116.781,192.749 114.597,189.016 116.030 M215.055 116.006 C 211.557 117.389,210.697 122.821,213.559 125.459 C 215.697 127.430,219.847 127.297,221.689 125.199 L 222.188 124.631 221.641 124.256 L 221.094 123.881 220.793 124.263 C 218.765 126.841,214.226 125.625,213.436 122.292 L 213.327 121.833 218.021 121.833 L 222.715 121.833 222.617 120.660 C 222.294 116.815,218.662 114.580,215.055 116.006 M241.059 116.004 C 237.512 117.408,236.463 122.604,239.179 125.321 C 241.916 128.057,247.187 127.036,248.514 123.513 C 250.317 118.729,245.764 114.143,241.059 116.004 M254.648 115.887 C 254.316 116.011,253.810 116.279,253.523 116.484 L 253.000 116.856 253.000 116.345 C 253.000 115.850,252.976 115.833,252.250 115.833 L 251.500 115.833 251.500 123.417 L 251.500 131.000 252.250 131.000 L 253.000 131.000 253.000 128.403 C 253.000 126.974,253.056 125.834,253.125 125.869 C 257.639 128.164,261.567 126.095,261.579 121.417 C 261.590 117.360,258.118 114.590,254.648 115.887 M267.648 115.897 C 267.316 116.015,266.810 116.279,266.523 116.484 L 266.000 116.856 266.000 116.345 C 266.000 115.850,265.976 115.833,265.250 115.833 L 264.500 115.833 264.500 123.417 L 264.500 131.000 265.250 131.000 L 266.000 131.000 266.000 128.308 C 266.000 125.743,266.014 125.628,266.295 125.882 C 267.882 127.318,271.320 127.111,273.004 125.477 C 277.164 121.439,272.997 113.985,267.648 115.897 M280.667 115.813 C 276.821 117.073,275.571 122.078,278.320 125.209 C 280.154 127.298,284.294 127.442,286.380 125.488 L 287.250 124.673 286.833 124.340 C 286.283 123.901,286.245 123.907,285.473 124.568 C 283.034 126.656,279.039 125.421,278.553 122.429 L 278.456 121.833 283.161 121.833 L 287.866 121.833 287.747 120.792 C 287.493 118.575,286.506 116.980,284.886 116.167 C 284.027 115.736,281.539 115.527,280.667 115.813 M292.523 115.936 C 292.311 116.084,291.995 116.441,291.820 116.728 L 291.501 117.250 291.501 116.542 L 291.500 115.833 290.667 115.833 L 289.833 115.833 289.833 121.250 L 289.833 126.667 290.667 126.667 L 291.500 126.667 291.500 122.702 C 291.500 117.707,292.036 116.273,293.620 117.033 C 294.444 117.428,294.495 117.739,294.498 122.375 L 294.500 126.667 295.229 126.667 L 295.958 126.667 296.046 122.875 C 296.159 118.052,296.490 116.944,297.816 116.944 C 299.033 116.944,299.077 117.119,299.133 122.171 L 299.182 126.667 299.924 126.667 L 300.667 126.667 300.667 122.311 C 300.667 119.525,300.598 117.726,300.476 117.319 C 299.926 115.483,297.662 115.061,296.296 116.540 C 295.905 116.964,295.667 117.123,295.667 116.962 C 295.667 116.001,293.458 115.281,292.523 115.936 M306.667 115.823 C 302.006 117.245,301.513 124.209,305.924 126.328 C 307.967 127.309,310.834 126.936,312.380 125.488 L 313.250 124.673 312.833 124.340 C 312.286 123.903,312.229 123.911,311.534 124.521 C 309.281 126.499,305.672 125.714,304.764 123.048 C 304.318 121.740,303.980 121.833,309.167 121.833 L 313.833 121.833 313.833 121.342 C 313.833 117.465,310.272 114.722,306.667 115.823 M320.196 116.100 C 319.383 116.505,318.685 117.271,318.237 118.250 C 318.126 118.491,318.071 118.202,318.035 117.208 L 317.987 115.833 317.243 115.833 L 316.500 115.833 316.500 121.250 L 316.500 126.667 317.234 126.667 L 317.969 126.667 318.040 123.542 C 318.150 118.722,319.216 116.922,321.945 116.946 C 324.236 116.966,324.568 117.676,324.638 122.708 L 324.693 126.667 325.430 126.667 L 326.167 126.667 326.167 122.864 C 326.167 118.679,326.025 117.785,325.211 116.818 C 324.187 115.600,321.865 115.268,320.196 116.100 M371.214 116.009 C 367.675 117.408,366.817 122.779,369.707 125.443 C 371.866 127.433,376.005 127.307,377.860 125.194 L 378.364 124.620 377.861 124.302 L 377.358 123.983 376.603 124.560 C 373.921 126.607,370.372 125.559,369.689 122.518 L 369.535 121.833 374.207 121.833 L 378.878 121.833 378.797 120.693 C 378.522 116.857,374.833 114.578,371.214 116.009 M198.500 115.882 C 198.500 115.909,199.543 118.328,200.818 121.257 L 203.135 126.583 204.206 126.632 L 205.277 126.681 206.045 124.882 C 206.467 123.893,207.525 121.452,208.396 119.458 L 209.979 115.833 209.031 115.837 L 208.083 115.840 206.178 120.590 C 205.130 123.202,204.222 125.282,204.161 125.211 C 204.100 125.141,203.769 124.371,203.426 123.500 C 203.084 122.629,202.239 120.548,201.549 118.875 L 200.295 115.833 199.397 115.833 C 198.904 115.833,198.500 115.855,198.500 115.882 M192.951 117.285 C 193.983 117.761,194.987 119.155,194.996 120.125 L 195.000 120.500 191.163 120.500 L 187.327 120.500 187.437 120.042 C 188.039 117.529,190.650 116.224,192.951 117.285 M219.165 117.398 C 220.013 117.817,220.783 118.895,220.944 119.887 L 221.044 120.500 217.177 120.500 L 213.311 120.500 213.425 120.125 C 214.291 117.291,216.668 116.161,219.165 117.398 M245.182 117.343 C 246.670 118.097,247.417 119.621,247.300 121.657 C 246.994 126.932,239.628 126.988,239.206 121.719 C 238.920 118.157,242.139 115.800,245.182 117.343 M257.140 117.010 C 260.621 117.756,261.228 123.512,258.000 125.162 C 256.656 125.849,255.037 125.719,253.731 124.820 L 253.000 124.317 253.000 121.273 L 253.000 118.229 253.458 117.892 C 254.164 117.372,254.696 117.116,255.333 116.988 C 256.191 116.817,256.243 116.817,257.140 117.010 M270.183 117.019 C 274.083 117.855,274.078 124.562,270.177 125.498 C 269.086 125.759,268.028 125.575,266.962 124.938 L 266.083 124.414 266.038 121.430 C 265.983 117.878,266.222 117.415,268.333 116.989 C 269.192 116.816,269.240 116.817,270.183 117.019 M283.796 117.195 C 284.879 117.526,285.789 118.629,286.076 119.958 L 286.193 120.500 282.347 120.500 C 277.953 120.500,278.157 120.588,278.934 119.028 C 279.838 117.214,281.638 116.535,283.796 117.195 M310.192 117.350 C 311.191 117.853,312.167 119.316,312.167 120.311 C 312.167 120.446,311.080 120.500,308.333 120.500 C 304.086 120.500,304.264 120.554,304.746 119.402 C 305.662 117.209,308.093 116.293,310.192 117.350 M374.180 117.003 C 375.718 117.294,376.694 118.242,377.137 119.875 L 377.306 120.500 373.417 120.500 L 369.527 120.500 369.698 119.875 C 370.168 118.160,371.319 117.162,373.186 116.850 C 373.242 116.841,373.689 116.910,374.180 117.003 M384.841 117.263 C 384.524 117.400,384.018 117.701,383.716 117.932 L 383.167 118.350 383.167 121.227 L 383.167 124.104 383.625 124.543 C 385.087 125.944,388.068 125.805,389.205 124.283 C 391.861 120.731,388.672 115.601,384.841 117.263 " stroke="none" fill="#040c84" fill-rule="evenodd"></path><path id="path1" d="M0.000 71.500 L 0.000 143.000 200.000 143.000 L 400.000 143.000 400.000 71.500 L 400.000 0.000 200.000 0.000 L 0.000 0.000 0.000 71.500 M78.917 13.186 C 119.721 18.511,144.333 59.849,129.415 98.000 C 123.997 111.854,114.269 122.714,100.500 130.279 C 88.447 136.901,72.229 139.125,58.333 136.063 C 18.765 127.343,-2.216 84.508,15.240 48.083 C 26.722 24.123,52.878 9.789,78.917 13.186 M15.667 74.912 L 15.667 92.195 22.625 92.121 C 30.098 92.041,30.719 91.979,33.134 91.070 C 37.223 89.531,39.334 85.841,38.699 81.347 C 38.216 77.937,36.784 76.360,32.686 74.726 C 32.316 74.578,32.361 74.532,33.368 74.036 C 38.063 71.725,39.120 64.343,35.302 60.529 C 33.019 58.247,31.055 57.822,22.292 57.713 L 15.667 57.630 15.667 74.912 M48.000 60.079 L 48.000 62.492 50.708 62.538 L 53.417 62.583 53.459 74.958 L 53.502 87.333 50.751 87.333 L 48.000 87.333 48.000 89.750 L 48.000 92.167 56.250 92.167 L 64.500 92.167 64.500 89.750 L 64.500 87.333 61.667 87.333 L 58.833 87.333 58.833 72.500 L 58.833 57.667 53.417 57.667 L 48.000 57.667 48.000 60.079 M178.653 57.995 C 184.766 59.256,187.828 64.107,186.591 70.570 C 185.524 76.145,181.503 78.328,172.292 78.332 L 169.000 78.333 169.000 85.250 L 169.000 92.167 166.167 92.167 L 163.333 92.167 163.333 74.917 L 163.333 57.667 170.208 57.669 C 176.362 57.671,177.248 57.705,178.653 57.995 M237.000 61.000 L 237.000 64.333 233.583 64.333 L 230.167 64.333 230.167 61.000 L 230.167 57.667 233.583 57.667 L 237.000 57.667 237.000 61.000 M291.500 62.583 L 291.500 67.500 296.667 67.500 L 301.833 67.500 301.833 70.000 L 301.833 72.500 296.655 72.500 L 291.478 72.500 291.542 78.542 C 291.624 86.122,291.853 86.849,294.393 87.585 C 297.306 88.428,299.555 86.998,300.443 83.735 L 300.583 83.219 302.958 83.729 L 305.333 84.239 305.333 84.756 C 305.333 91.141,296.087 95.101,290.112 91.275 C 286.676 89.075,286.007 86.988,286.003 78.458 L 286.000 72.500 283.167 72.500 L 280.333 72.500 280.333 70.000 L 280.333 67.500 283.167 67.500 L 286.000 67.500 286.000 62.583 L 286.000 57.667 288.750 57.667 L 291.500 57.667 291.500 62.583 M205.684 59.378 C 206.510 59.930,206.833 60.695,206.833 62.104 L 206.833 63.290 207.646 63.398 C 212.536 64.047,217.531 68.374,219.269 73.467 C 223.776 86.672,210.156 98.565,197.667 92.329 C 185.057 86.033,187.161 66.923,200.828 63.614 L 202.329 63.250 202.331 61.950 C 202.335 59.471,203.958 58.226,205.684 59.378 M203.810 60.319 L 203.417 60.637 203.472 66.694 C 203.533 73.421,203.546 73.502,204.546 73.497 C 205.874 73.491,205.891 73.394,205.748 66.538 C 205.634 61.074,205.601 60.601,205.312 60.312 C 204.912 59.912,204.310 59.914,203.810 60.319 M27.290 62.658 C 30.680 62.986,32.250 64.495,32.244 67.417 C 32.237 71.020,30.662 72.015,24.792 72.126 L 21.000 72.198 21.000 67.349 L 21.000 62.500 23.375 62.505 C 24.681 62.507,26.443 62.576,27.290 62.658 M169.000 67.929 L 169.000 73.192 173.125 73.138 L 177.250 73.083 178.300 72.598 C 182.007 70.887,182.354 65.604,178.894 63.564 C 177.727 62.876,176.267 62.673,172.458 62.670 L 169.000 62.667 169.000 67.929 M201.333 66.278 C 187.232 69.895,190.081 91.167,204.667 91.167 C 219.714 91.167,221.985 69.478,207.292 66.099 L 206.833 65.994 206.833 67.228 L 206.833 68.462 207.708 68.746 C 217.688 71.986,216.990 86.441,206.750 88.583 C 194.491 91.148,189.428 73.170,201.211 68.914 C 202.342 68.506,202.455 68.265,202.301 66.600 L 202.250 66.043 201.333 66.278 M112.917 67.178 C 100.283 69.284,98.664 87.441,110.721 91.804 C 115.846 93.659,122.198 92.654,125.795 89.419 L 126.648 88.653 125.282 86.771 L 123.917 84.889 123.250 85.427 C 118.289 89.434,110.253 88.357,108.369 83.433 C 107.686 81.649,106.532 81.833,118.350 81.833 L 128.700 81.833 128.591 80.625 C 127.725 71.103,121.485 65.750,112.917 67.178 M269.687 67.611 C 273.744 69.515,274.326 71.669,274.331 84.792 L 274.333 92.167 271.508 92.167 L 268.683 92.167 268.633 83.458 C 268.585 75.021,268.572 74.726,268.234 73.994 C 266.629 70.527,260.713 71.615,258.763 75.737 C 257.806 77.760,257.777 78.032,257.707 85.375 L 257.643 92.167 254.905 92.167 L 252.167 92.167 252.167 79.833 L 252.167 67.500 254.917 67.500 L 257.667 67.500 257.671 70.375 L 257.675 73.250 258.082 72.259 C 258.864 70.357,260.292 68.720,261.903 67.878 C 263.968 66.799,267.686 66.672,269.687 67.611 M236.333 77.333 L 236.333 87.167 239.167 87.167 L 242.000 87.167 242.000 89.667 L 242.000 92.167 233.667 92.167 L 225.333 92.167 225.333 89.667 L 225.333 87.167 228.083 87.167 L 230.833 87.167 230.833 79.833 L 230.833 72.500 228.083 72.500 L 225.333 72.500 225.333 70.000 L 225.333 67.500 230.833 67.500 L 236.333 67.500 236.333 77.333 M74.868 76.875 L 74.919 86.083 75.358 87.374 C 76.688 91.284,79.663 93.120,83.917 92.655 C 87.464 92.268,89.354 90.656,91.132 86.500 C 91.268 86.183,91.313 86.808,91.322 89.125 L 91.333 92.167 94.000 92.167 L 96.667 92.167 96.667 79.917 L 96.667 67.667 94.012 67.667 L 91.357 67.667 91.289 74.458 C 91.215 81.939,91.182 82.216,90.111 84.250 C 88.003 88.255,82.416 89.249,80.750 85.917 L 80.250 84.917 80.201 76.292 L 80.153 67.667 77.485 67.667 L 74.818 67.667 74.868 76.875 M117.703 72.164 C 120.119 72.911,121.991 74.684,122.410 76.625 L 122.526 77.167 115.335 77.167 L 108.144 77.167 108.255 76.792 C 109.359 73.050,113.694 70.926,117.703 72.164 M28.842 77.236 C 32.475 77.884,34.225 80.500,33.241 83.813 C 32.468 86.415,30.173 87.325,24.375 87.330 L 21.000 87.333 21.000 82.167 L 21.000 77.000 24.292 77.006 C 26.291 77.009,28.077 77.100,28.842 77.236 M393.167 118.667 L 393.167 129.833 386.750 129.833 L 380.333 129.833 380.333 118.667 L 380.333 107.500 386.750 107.500 L 393.167 107.500 393.167 118.667 M193.761 111.519 L 194.130 112.101 191.607 113.538 C 189.359 114.817,189.061 114.945,188.875 114.705 C 188.491 114.209,188.657 114.020,190.758 112.561 C 191.908 111.763,192.890 111.043,192.940 110.963 C 193.092 110.716,193.375 110.908,193.761 111.519 M156.840 111.254 L 157.331 111.507 155.520 115.129 C 154.524 117.120,152.529 121.150,151.086 124.083 C 149.644 127.017,148.442 129.441,148.414 129.471 C 148.372 129.516,147.360 129.052,147.199 128.914 C 147.105 128.833,156.081 111.000,156.216 111.000 C 156.290 111.000,156.571 111.114,156.840 111.254 M180.127 111.754 C 185.021 113.207,185.682 123.519,181.043 126.044 C 179.993 126.616,178.543 126.826,175.625 126.830 L 173.333 126.833 173.333 119.167 L 173.333 111.500 176.303 111.500 C 178.477 111.500,179.502 111.568,180.127 111.754 M231.000 118.417 L 231.000 125.333 232.250 125.333 L 233.500 125.333 233.500 126.083 L 233.500 126.833 230.250 126.833 L 227.000 126.833 227.000 126.083 L 227.000 125.333 228.167 125.333 L 229.333 125.333 229.333 119.083 L 229.333 112.833 228.167 112.833 L 227.000 112.833 227.000 112.167 L 227.000 111.500 229.000 111.500 L 231.000 111.500 231.000 118.417 M333.000 113.667 L 333.000 115.833 335.333 115.833 L 337.667 115.833 337.667 116.583 L 337.667 117.333 335.333 117.333 L 333.000 117.333 333.000 120.189 C 333.000 121.845,333.080 123.311,333.190 123.679 C 333.924 126.128,337.363 126.145,338.268 123.704 C 338.428 123.271,338.569 122.900,338.581 122.880 C 338.731 122.620,339.833 123.251,339.833 123.597 C 339.833 126.086,336.186 127.825,333.656 126.542 C 331.717 125.558,331.336 124.547,331.334 120.382 L 331.333 117.348 330.125 117.299 L 328.917 117.250 328.865 116.542 L 328.814 115.833 330.074 115.833 L 331.333 115.833 331.333 113.667 L 331.333 111.500 332.167 111.500 L 333.000 111.500 333.000 113.667 M356.729 116.042 C 357.162 118.540,357.639 121.258,357.790 122.083 L 358.063 123.583 358.262 122.583 C 358.372 122.033,358.706 120.286,359.004 118.700 L 359.547 115.818 360.390 115.867 L 361.233 115.917 361.897 119.625 C 362.262 121.665,362.603 123.333,362.655 123.333 C 362.707 123.333,363.190 120.727,363.727 117.541 C 364.860 110.822,364.641 111.500,365.677 111.500 C 366.642 111.500,366.609 111.345,366.164 113.760 C 365.980 114.763,365.416 117.946,364.912 120.833 C 363.808 127.161,363.922 126.833,362.832 126.833 C 361.818 126.833,361.976 127.177,361.082 123.032 C 360.693 121.227,360.332 119.862,360.281 120.000 C 360.230 120.138,359.910 121.563,359.570 123.167 C 358.736 127.105,358.855 126.862,357.792 126.800 L 356.917 126.750 356.632 125.250 C 356.476 124.425,355.894 121.200,355.339 118.083 C 354.784 114.967,354.287 112.210,354.235 111.958 C 354.141 111.503,354.146 111.500,355.041 111.500 L 355.942 111.500 356.729 116.042 M381.611 111.611 C 381.550 111.672,381.500 115.085,381.500 119.194 L 381.500 126.667 382.250 126.667 C 382.934 126.667,383.000 126.631,383.000 126.260 C 383.000 125.804,383.249 125.563,383.426 125.848 C 384.288 127.243,388.255 127.095,389.949 125.604 C 394.876 121.267,389.316 112.992,383.795 116.445 C 383.453 116.658,383.134 116.833,383.087 116.833 C 383.039 116.833,383.000 115.633,383.000 114.167 L 383.000 111.500 382.361 111.500 C 382.010 111.500,381.672 111.550,381.611 111.611 M175.000 119.081 L 175.000 125.372 177.227 125.307 C 181.118 125.193,182.406 123.645,182.406 119.083 C 182.406 114.536,181.113 113.010,177.138 112.866 L 175.000 112.789 175.000 119.081 M142.448 115.529 C 143.019 116.066,143.030 116.049,140.377 118.706 L 137.921 121.167 140.416 123.666 L 142.911 126.165 142.454 126.621 L 141.998 127.078 138.999 124.082 L 136.000 121.087 138.957 118.127 C 140.583 116.499,141.947 115.167,141.988 115.167 C 142.028 115.167,142.235 115.330,142.448 115.529 M165.377 118.127 L 168.333 121.087 165.334 124.082 L 162.335 127.078 161.886 126.629 L 161.437 126.179 162.406 125.131 C 162.938 124.555,164.059 123.432,164.895 122.635 L 166.417 121.186 163.874 118.632 L 161.332 116.078 161.787 115.622 C 162.037 115.372,162.282 115.167,162.331 115.167 C 162.380 115.167,163.751 116.499,165.377 118.127 M192.533 115.687 C 195.091 116.229,196.808 118.535,196.830 121.458 L 196.833 121.833 192.145 121.833 L 187.456 121.833 187.553 122.429 C 188.042 125.444,192.072 126.591,194.491 124.405 L 195.098 123.856 195.632 124.195 C 196.319 124.629,196.315 124.649,195.367 125.536 C 192.533 128.186,187.293 127.042,186.082 123.509 C 184.476 118.822,187.875 114.700,192.533 115.687 M218.533 115.687 C 220.963 116.202,222.486 118.055,222.778 120.851 L 222.881 121.833 218.190 121.833 C 212.978 121.833,213.318 121.740,213.764 123.048 C 214.668 125.701,218.446 126.396,220.609 124.307 L 221.134 123.799 221.650 124.181 C 222.317 124.674,222.321 124.659,221.273 125.617 C 218.711 127.958,214.094 127.227,212.463 124.220 C 210.005 119.689,213.597 114.641,218.533 115.687 M245.554 115.952 C 247.762 116.746,249.138 119.081,248.962 121.737 C 248.523 128.366,238.860 128.913,237.674 122.375 C 236.831 117.724,241.009 114.318,245.554 115.952 M258.362 115.929 C 261.739 117.038,262.832 122.453,260.254 125.307 C 258.627 127.108,255.680 127.515,253.625 126.222 L 253.000 125.829 253.000 128.507 L 253.000 131.185 252.208 131.134 L 251.417 131.083 251.373 123.458 L 251.330 115.833 252.165 115.833 C 252.952 115.833,253.000 115.858,253.000 116.264 L 253.000 116.694 253.617 116.313 C 254.952 115.487,256.608 115.354,258.362 115.929 M271.343 115.916 C 275.657 117.394,275.853 124.650,271.630 126.509 C 270.283 127.101,268.225 127.079,267.046 126.459 L 266.175 126.001 266.129 128.542 L 266.083 131.083 265.250 131.083 L 264.417 131.083 264.373 123.458 L 264.330 115.833 265.248 115.833 C 266.120 115.833,266.167 115.855,266.167 116.255 L 266.167 116.677 266.655 116.315 C 267.747 115.509,269.675 115.344,271.343 115.916 M284.577 115.937 C 286.316 116.536,287.595 118.469,287.791 120.792 L 287.879 121.833 283.186 121.833 L 278.494 121.833 278.602 122.292 C 279.377 125.557,283.286 126.688,285.645 124.329 L 286.159 123.816 286.764 124.227 L 287.370 124.639 286.593 125.416 C 284.477 127.532,280.561 127.523,278.435 125.398 C 275.813 122.776,276.596 117.390,279.795 116.054 C 281.237 115.451,283.039 115.407,284.577 115.937 M294.561 115.730 C 294.863 115.856,295.277 116.171,295.481 116.430 L 295.851 116.900 296.217 116.453 C 297.502 114.886,300.203 115.505,300.618 117.463 C 300.691 117.804,300.750 120.033,300.750 122.417 L 300.750 126.750 299.973 126.800 L 299.195 126.850 299.139 122.437 C 299.078 117.613,298.985 117.172,298.000 117.027 C 296.566 116.815,296.268 117.732,296.167 122.667 L 296.083 126.750 295.292 126.801 L 294.500 126.852 294.498 122.884 C 294.496 117.618,294.358 117.000,293.189 117.000 C 291.912 117.000,291.624 117.988,291.511 122.750 L 291.417 126.750 290.667 126.750 L 289.917 126.750 289.873 121.292 L 289.829 115.833 290.664 115.833 L 291.500 115.833 291.501 116.458 L 291.501 117.083 291.837 116.532 C 292.395 115.617,293.507 115.290,294.561 115.730 M310.522 115.918 C 312.301 116.532,313.594 118.403,313.781 120.634 L 313.882 121.833 309.209 121.833 L 304.535 121.833 304.687 122.507 C 304.985 123.835,305.947 124.958,307.117 125.344 C 308.595 125.832,311.245 125.171,311.878 124.157 C 312.133 123.748,312.156 123.750,312.814 124.235 L 313.359 124.638 312.748 125.314 C 310.221 128.110,304.870 127.244,303.311 123.786 C 302.447 121.869,302.864 118.833,304.210 117.242 C 305.493 115.725,308.272 115.143,310.522 115.918 M324.332 116.043 C 325.944 116.845,326.165 117.656,326.166 122.801 L 326.167 126.852 325.375 126.801 L 324.583 126.750 324.500 122.750 C 324.397 117.805,324.185 117.259,322.289 117.046 C 319.489 116.730,318.299 118.594,318.169 123.500 L 318.083 126.750 317.292 126.801 L 316.500 126.852 316.500 121.342 L 316.500 115.833 317.333 115.833 L 318.167 115.833 318.167 116.954 C 318.167 118.051,318.172 118.066,318.442 117.662 C 319.815 115.610,322.161 114.965,324.332 116.043 M374.700 115.687 C 377.263 116.229,378.974 118.528,378.997 121.458 L 379.000 121.833 374.333 121.833 L 369.667 121.833 369.670 122.208 C 369.700 125.252,374.369 126.631,376.775 124.307 L 377.301 123.799 377.817 124.181 C 378.484 124.674,378.488 124.659,377.440 125.617 C 374.735 128.089,370.098 127.187,368.466 123.872 C 366.288 119.448,369.923 114.676,374.700 115.687 M200.500 115.984 C 200.500 116.136,204.124 125.013,204.229 125.118 C 204.259 125.148,204.437 124.774,204.624 124.286 C 204.811 123.798,205.656 121.697,206.501 119.616 L 208.039 115.833 209.020 115.833 C 209.559 115.833,210.000 115.865,210.000 115.903 C 210.000 115.941,209.858 116.297,209.685 116.695 C 209.512 117.092,208.496 119.439,207.427 121.910 C 205.121 127.240,205.378 126.861,204.120 126.799 L 203.127 126.750 201.638 123.333 C 197.909 114.771,198.212 115.833,199.500 115.833 C 200.050 115.833,200.500 115.901,200.500 115.984 M387.625 117.086 C 390.828 118.037,391.191 123.624,388.151 125.175 C 386.722 125.904,384.872 125.694,383.625 124.660 L 383.000 124.142 383.000 121.246 L 383.000 118.350 383.542 117.946 C 384.983 116.870,386.103 116.635,387.625 117.086 M189.864 117.243 C 188.842 117.706,188.297 118.212,187.899 119.067 C 187.271 120.415,187.055 120.333,191.253 120.333 L 195.006 120.333 194.900 119.875 C 194.410 117.759,191.769 116.379,189.864 117.243 M215.987 117.218 C 214.921 117.617,213.667 118.902,213.667 119.595 C 213.667 119.711,213.621 119.925,213.566 120.070 C 213.475 120.305,213.865 120.333,217.232 120.333 C 221.412 120.333,221.212 120.401,220.654 119.170 C 219.867 117.435,217.759 116.554,215.987 117.218 M241.711 117.266 C 238.450 118.468,238.525 124.208,241.817 125.310 C 244.848 126.325,247.583 124.072,247.286 120.803 C 247.032 117.998,244.347 116.295,241.711 117.266 M254.791 117.228 C 254.447 117.356,253.904 117.661,253.583 117.906 L 253.000 118.350 253.000 121.241 L 253.000 124.132 253.569 124.632 C 255.296 126.148,258.289 125.689,259.436 123.732 C 261.479 120.246,258.370 115.892,254.791 117.228 M267.814 117.230 C 267.483 117.348,266.975 117.614,266.686 117.820 L 266.159 118.195 266.205 121.298 L 266.250 124.401 266.973 124.909 C 268.647 126.085,271.405 125.491,272.436 123.732 C 274.488 120.231,271.435 115.936,267.814 117.230 M280.917 117.248 C 280.087 117.540,279.108 118.609,278.774 119.589 L 278.520 120.333 282.260 120.333 C 286.465 120.333,286.287 120.398,285.689 119.082 C 284.910 117.366,282.844 116.572,280.917 117.248 M306.668 117.445 C 305.671 117.959,304.908 118.883,304.731 119.792 L 304.625 120.333 308.313 120.333 C 312.545 120.333,312.417 120.394,311.550 118.802 C 310.639 117.128,308.459 116.522,306.668 117.445 M372.154 117.218 C 370.894 117.689,369.667 119.142,369.667 120.161 C 369.667 120.274,370.951 120.333,373.420 120.333 L 377.173 120.333 377.063 119.875 C 376.545 117.715,374.206 116.449,372.154 117.218 " stroke="none" fill="#fbfbfb" fill-rule="evenodd"></path><path id="path2" d="M15.580 74.917 C 15.580 84.450,15.600 88.326,15.625 83.529 C 15.650 78.732,15.650 70.932,15.625 66.196 C 15.600 61.459,15.580 65.383,15.580 74.917 M163.414 74.917 C 163.414 84.450,163.434 88.326,163.458 83.529 C 163.483 78.732,163.483 70.932,163.458 66.196 C 163.434 61.459,163.414 65.383,163.414 74.917 M206.720 62.167 C 206.720 62.762,206.750 63.006,206.787 62.708 C 206.824 62.410,206.824 61.923,206.787 61.625 C 206.750 61.327,206.720 61.571,206.720 62.167 M53.412 74.917 C 53.412 81.700,53.433 84.451,53.458 81.029 C 53.483 77.608,53.483 72.058,53.458 68.696 C 53.433 65.334,53.412 68.133,53.412 74.917 M168.908 67.917 C 168.908 70.850,168.930 72.027,168.958 70.531 C 168.986 69.036,168.986 66.636,168.958 65.198 C 168.930 63.760,168.908 64.983,168.908 67.917 M225.400 70.000 C 225.400 71.421,225.426 72.002,225.457 71.292 C 225.488 70.581,225.488 69.419,225.457 68.708 C 225.426 67.998,225.400 68.579,225.400 70.000 M203.394 70.917 C 203.395 71.833,203.423 72.187,203.456 71.703 C 203.490 71.218,203.490 70.468,203.456 70.036 C 203.421 69.604,203.394 70.000,203.394 70.917 M22.458 77.124 C 23.306 77.154,24.694 77.154,25.542 77.124 C 26.390 77.094,25.696 77.069,24.000 77.069 C 22.304 77.069,21.610 77.094,22.458 77.124 M168.910 85.250 C 168.910 89.100,168.932 90.651,168.958 88.697 C 168.985 86.743,168.985 83.593,168.958 81.697 C 168.931 79.801,168.910 81.400,168.910 85.250 M113.125 81.958 C 115.990 81.984,120.677 81.984,123.542 81.958 C 126.406 81.933,124.063 81.912,118.333 81.912 C 112.604 81.912,110.260 81.933,113.125 81.958 M225.407 87.383 C 225.361 87.502,225.347 88.646,225.375 89.925 L 225.427 92.250 225.463 89.796 L 225.500 87.342 228.208 87.291 L 230.917 87.241 228.203 87.204 C 226.105 87.175,225.471 87.216,225.407 87.383 M237.717 87.291 C 238.523 87.321,239.798 87.321,240.550 87.291 C 241.302 87.260,240.642 87.235,239.083 87.235 C 237.525 87.235,236.910 87.260,237.717 87.291 M204.292 88.784 C 204.498 88.824,204.835 88.824,205.042 88.784 C 205.248 88.745,205.079 88.712,204.667 88.712 C 204.254 88.712,204.085 88.745,204.292 88.784 M229.409 119.083 C 229.409 122.567,229.431 124.015,229.458 122.303 C 229.485 120.590,229.485 117.740,229.458 115.969 C 229.431 114.199,229.409 115.600,229.409 119.083 M165.250 118.167 C 166.898 119.817,168.284 121.167,168.330 121.167 C 168.376 121.167,167.065 119.817,165.417 118.167 C 163.769 116.517,162.383 115.167,162.337 115.167 C 162.291 115.167,163.602 116.517,165.250 118.167 M264.410 123.417 C 264.410 127.633,264.432 129.334,264.458 127.197 C 264.485 125.059,264.485 121.609,264.458 119.530 C 264.432 117.451,264.410 119.200,264.410 123.417 M318.057 117.083 C 318.058 117.817,318.087 118.096,318.122 117.704 C 318.157 117.312,318.157 116.712,318.121 116.371 C 318.085 116.029,318.057 116.350,318.057 117.083 M141.413 117.542 L 140.083 118.917 141.458 117.587 C 142.215 116.856,142.833 116.237,142.833 116.212 C 142.833 116.091,142.647 116.265,141.413 117.542 M300.739 122.750 C 300.739 124.950,300.762 125.827,300.791 124.699 C 300.820 123.571,300.820 121.771,300.791 120.699 C 300.762 119.627,300.738 120.550,300.739 122.750 M138.577 120.375 L 137.750 121.250 138.625 120.423 C 139.438 119.654,139.576 119.500,139.452 119.500 C 139.426 119.500,139.032 119.894,138.577 120.375 M318.067 124.167 C 318.067 125.587,318.093 126.169,318.124 125.458 C 318.155 124.748,318.155 123.585,318.124 122.875 C 318.093 122.165,318.067 122.746,318.067 124.167 " stroke="none" fill="#9697cc" fill-rule="evenodd"></path><path id="path3" d="M70.548 12.790 C 71.078 12.823,71.903 12.823,72.381 12.789 C 72.859 12.756,72.425 12.729,71.417 12.729 C 70.408 12.729,70.017 12.757,70.548 12.790 M115.417 31.000 C 116.053 31.642,116.612 32.167,116.658 32.167 C 116.704 32.167,116.220 31.642,115.583 31.000 C 114.947 30.358,114.388 29.833,114.342 29.833 C 114.296 29.833,114.780 30.358,115.417 31.000 M230.237 61.000 C 230.237 62.879,230.261 63.648,230.291 62.708 C 230.321 61.769,230.321 60.231,230.291 59.292 C 230.261 58.352,230.237 59.121,230.237 61.000 M205.735 63.833 C 205.735 65.438,205.760 66.094,205.791 65.292 C 205.821 64.490,205.821 63.177,205.791 62.375 C 205.760 61.573,205.735 62.229,205.735 63.833 M22.292 62.624 C 23.048 62.655,24.285 62.655,25.042 62.624 C 25.798 62.593,25.179 62.568,23.667 62.568 C 22.154 62.568,21.535 62.593,22.292 62.624 M49.292 62.624 C 50.048 62.655,51.285 62.655,52.042 62.624 C 52.798 62.593,52.179 62.568,50.667 62.568 C 49.154 62.568,48.535 62.593,49.292 62.624 M203.403 66.333 C 203.403 68.029,203.427 68.723,203.458 67.875 C 203.488 67.027,203.488 65.640,203.458 64.792 C 203.427 63.944,203.403 64.637,203.403 66.333 M215.333 67.385 C 215.333 67.414,215.577 67.658,215.875 67.927 L 216.417 68.417 215.927 67.875 C 215.471 67.370,215.333 67.257,215.333 67.385 M74.707 75.542 L 74.747 83.583 74.792 75.629 L 74.837 67.675 77.543 67.625 L 80.250 67.574 77.458 67.537 L 74.667 67.500 74.707 75.542 M93.957 67.623 L 96.665 67.675 96.709 79.921 L 96.753 92.167 96.752 79.875 L 96.750 67.583 94.000 67.577 L 91.250 67.570 93.957 67.623 M280.400 70.000 C 280.400 71.421,280.426 72.002,280.457 71.292 C 280.488 70.581,280.488 69.419,280.457 68.708 C 280.426 67.998,280.400 68.579,280.400 70.000 M264.294 71.951 C 264.501 71.991,264.801 71.990,264.960 71.948 C 265.120 71.906,264.950 71.874,264.583 71.875 C 264.217 71.877,264.086 71.911,264.294 71.951 M9.067 75.083 C 9.067 76.458,9.093 76.999,9.124 76.284 C 9.155 75.569,9.155 74.444,9.124 73.784 C 9.092 73.124,9.066 73.708,9.067 75.083 M133.732 75.083 C 133.733 76.367,133.759 76.870,133.791 76.201 C 133.822 75.532,133.822 74.482,133.790 73.868 C 133.758 73.253,133.732 73.800,133.732 75.083 M170.458 73.291 C 171.306 73.321,172.694 73.321,173.542 73.291 C 174.390 73.261,173.696 73.236,172.000 73.236 C 170.304 73.236,169.610 73.261,170.458 73.291 M274.244 84.417 C 274.244 88.725,274.265 90.511,274.291 88.386 C 274.318 86.262,274.318 82.737,274.292 80.553 C 274.265 78.370,274.244 80.108,274.244 84.417 M189.226 78.583 C 189.225 79.408,189.254 79.767,189.288 79.380 C 189.323 78.993,189.324 78.318,189.289 77.880 C 189.255 77.442,189.226 77.758,189.226 78.583 M194.379 78.500 C 194.379 78.912,194.411 79.081,194.451 78.875 C 194.491 78.669,194.491 78.331,194.451 78.125 C 194.411 77.919,194.379 78.087,194.379 78.500 M214.875 78.583 C 214.877 78.950,214.911 79.080,214.951 78.873 C 214.991 78.666,214.990 78.366,214.948 78.206 C 214.906 78.047,214.874 78.217,214.875 78.583 M170.699 78.291 C 171.679 78.320,173.329 78.320,174.366 78.291 C 175.402 78.262,174.600 78.238,172.583 78.238 C 170.567 78.238,169.719 78.262,170.699 78.291 M383.068 114.167 C 383.068 115.679,383.093 116.298,383.124 115.542 C 383.155 114.785,383.155 113.548,383.124 112.792 C 383.093 112.035,383.068 112.654,383.068 114.167 M329.542 117.288 C 329.885 117.324,330.448 117.324,330.792 117.288 C 331.135 117.252,330.854 117.223,330.167 117.223 C 329.479 117.223,329.198 117.252,329.542 117.288 M334.125 117.290 C 334.790 117.322,335.877 117.322,336.542 117.290 C 337.206 117.259,336.662 117.233,335.333 117.233 C 334.004 117.233,333.460 117.259,334.125 117.290 M25.667 117.552 C 25.667 117.581,25.910 117.825,26.208 118.094 L 26.750 118.583 26.260 118.042 C 25.804 117.537,25.667 117.423,25.667 117.552 M383.272 118.143 C 383.028 118.412,382.998 118.825,383.042 121.351 L 383.092 124.250 383.129 121.346 C 383.161 118.914,383.211 118.393,383.442 118.138 C 383.594 117.970,383.681 117.833,383.635 117.833 C 383.589 117.833,383.426 117.972,383.272 118.143 M266.069 121.250 C 266.069 122.900,266.094 123.552,266.124 122.700 C 266.155 121.847,266.154 120.497,266.124 119.700 C 266.093 118.902,266.069 119.600,266.069 121.250 M28.000 119.885 C 28.000 119.914,28.244 120.158,28.542 120.427 L 29.083 120.917 28.594 120.375 C 28.138 119.870,28.000 119.757,28.000 119.885 M304.609 120.375 C 304.652 120.444,306.369 120.500,308.427 120.500 C 310.484 120.500,312.167 120.444,312.167 120.375 C 312.167 120.306,310.449 120.250,308.349 120.250 C 306.250 120.250,304.567 120.306,304.609 120.375 M189.384 120.458 C 190.467 120.487,192.192 120.487,193.218 120.458 C 194.244 120.428,193.358 120.405,191.250 120.405 C 189.142 120.405,188.302 120.429,189.384 120.458 M215.384 120.458 C 216.467 120.487,218.192 120.487,219.218 120.458 C 220.244 120.428,219.358 120.405,217.250 120.405 C 215.142 120.405,214.302 120.429,215.384 120.458 M280.384 120.458 C 281.467 120.487,283.192 120.487,284.218 120.458 C 285.244 120.428,284.358 120.405,282.250 120.405 C 280.142 120.405,279.302 120.429,280.384 120.458 M371.551 120.458 C 372.633 120.487,374.358 120.487,375.384 120.458 C 376.410 120.428,375.525 120.405,373.417 120.405 C 371.308 120.405,370.469 120.429,371.551 120.458 M239.209 121.250 C 239.211 121.617,239.245 121.747,239.285 121.540 C 239.324 121.332,239.323 121.032,239.281 120.873 C 239.239 120.714,239.207 120.883,239.209 121.250 M163.910 123.542 L 163.083 124.417 163.958 123.590 C 164.440 123.135,164.833 122.741,164.833 122.715 C 164.833 122.590,164.679 122.729,163.910 123.542 M383.064 125.907 C 383.013 126.039,383.001 126.283,383.037 126.449 C 383.078 126.637,383.135 126.547,383.189 126.208 C 383.280 125.641,383.221 125.498,383.064 125.907 M266.037 128.366 L 266.000 130.982 265.208 131.044 L 264.417 131.107 265.214 131.137 C 266.217 131.174,266.187 131.269,266.125 128.243 L 266.074 125.750 266.037 128.366 M174.542 126.791 C 175.252 126.822,176.415 126.822,177.125 126.791 C 177.835 126.759,177.254 126.734,175.833 126.734 C 174.412 126.734,173.831 126.759,174.542 126.791 M203.625 126.787 C 203.923 126.824,204.410 126.824,204.708 126.787 C 205.006 126.750,204.762 126.720,204.167 126.720 C 203.571 126.720,203.327 126.750,203.625 126.787 M228.634 126.791 C 229.578 126.821,231.078 126.821,231.967 126.791 C 232.856 126.761,232.083 126.737,230.250 126.737 C 228.417 126.737,227.689 126.761,228.634 126.791 M290.292 126.784 C 290.498 126.824,290.835 126.824,291.042 126.784 C 291.248 126.745,291.079 126.712,290.667 126.712 C 290.254 126.712,290.085 126.745,290.292 126.784 M294.877 126.786 C 295.131 126.825,295.506 126.824,295.711 126.784 C 295.916 126.744,295.708 126.713,295.250 126.714 C 294.792 126.716,294.624 126.748,294.877 126.786 M299.544 126.786 C 299.797 126.825,300.172 126.824,300.377 126.784 C 300.582 126.744,300.375 126.713,299.917 126.714 C 299.458 126.716,299.291 126.748,299.544 126.786 M316.877 126.786 C 317.131 126.825,317.506 126.824,317.711 126.784 C 317.916 126.744,317.708 126.713,317.250 126.714 C 316.792 126.716,316.624 126.748,316.877 126.786 M325.044 126.786 C 325.297 126.825,325.672 126.824,325.877 126.784 C 326.082 126.744,325.875 126.713,325.417 126.714 C 324.958 126.716,324.791 126.748,325.044 126.786 M357.375 126.786 C 357.627 126.824,358.040 126.824,358.292 126.786 C 358.544 126.748,358.337 126.717,357.833 126.717 C 357.329 126.717,357.123 126.748,357.375 126.786 M362.375 126.786 C 362.627 126.824,363.040 126.824,363.292 126.786 C 363.544 126.748,363.337 126.717,362.833 126.717 C 362.329 126.717,362.123 126.748,362.375 126.786 M251.877 131.120 C 252.131 131.158,252.506 131.157,252.711 131.117 C 252.916 131.078,252.708 131.046,252.250 131.048 C 251.792 131.049,251.624 131.081,251.877 131.120 M70.133 137.457 C 70.894 137.488,72.094 137.488,72.800 137.457 C 73.506 137.426,72.883 137.401,71.417 137.401 C 69.950 137.401,69.372 137.427,70.133 137.457 " stroke="none" fill="#c5c6e4" fill-rule="evenodd"></path><path id="path4" d="M58.915 72.417 L 58.917 87.250 61.704 87.296 L 64.491 87.341 64.544 89.754 L 64.597 92.167 64.590 89.709 L 64.583 87.250 61.793 87.204 L 59.002 87.159 58.958 72.371 L 58.914 57.583 58.915 72.417 M236.904 61.000 C 236.904 62.879,236.928 63.648,236.958 62.708 C 236.987 61.769,236.987 60.231,236.958 59.292 C 236.928 58.352,236.904 59.121,236.904 61.000 M206.724 67.250 C 206.724 67.983,206.754 68.263,206.789 67.871 C 206.824 67.479,206.824 66.879,206.788 66.537 C 206.752 66.196,206.723 66.517,206.724 67.250 M186.723 68.000 C 186.723 68.688,186.752 68.969,186.788 68.625 C 186.824 68.281,186.824 67.719,186.788 67.375 C 186.752 67.031,186.723 67.313,186.723 68.000 M202.381 67.750 C 202.382 68.208,202.415 68.376,202.453 68.123 C 202.491 67.869,202.490 67.494,202.451 67.289 C 202.411 67.084,202.380 67.292,202.381 67.750 M213.583 69.500 C 213.941 69.867,214.272 70.167,214.318 70.167 C 214.363 70.167,214.108 69.867,213.750 69.500 C 213.392 69.133,213.062 68.833,213.016 68.833 C 212.970 68.833,213.225 69.133,213.583 69.500 M268.744 84.083 C 268.744 88.575,268.765 90.389,268.792 88.113 C 268.818 85.838,268.818 82.163,268.791 79.947 C 268.765 77.730,268.744 79.592,268.744 84.083 M191.883 78.500 C 191.883 79.004,191.915 79.210,191.953 78.958 C 191.991 78.706,191.991 78.294,191.953 78.042 C 191.915 77.790,191.883 77.996,191.883 78.500 M217.383 78.500 C 217.383 79.004,217.415 79.210,217.453 78.958 C 217.491 78.706,217.491 78.294,217.453 78.042 C 217.415 77.790,217.383 77.996,217.383 78.500 M220.048 78.583 C 220.049 79.042,220.081 79.209,220.120 78.956 C 220.158 78.703,220.157 78.328,220.117 78.123 C 220.078 77.918,220.046 78.125,220.048 78.583 M91.205 79.333 C 91.205 79.654,91.240 79.785,91.282 79.625 C 91.323 79.465,91.323 79.202,91.282 79.042 C 91.240 78.881,91.205 79.012,91.205 79.333 M33.372 82.167 C 33.372 82.487,33.406 82.619,33.448 82.458 C 33.490 82.298,33.490 82.035,33.448 81.875 C 33.406 81.715,33.372 81.846,33.372 82.167 M22.634 87.291 C 23.578 87.321,25.078 87.321,25.967 87.291 C 26.856 87.261,26.083 87.237,24.250 87.237 C 22.417 87.237,21.689 87.261,22.634 87.291 M49.292 87.291 C 50.048 87.322,51.285 87.322,52.042 87.291 C 52.798 87.260,52.179 87.235,50.667 87.235 C 49.154 87.235,48.535 87.260,49.292 87.291 M383.458 107.625 C 385.223 107.652,388.110 107.652,389.875 107.625 C 391.640 107.598,390.196 107.576,386.667 107.576 C 383.137 107.576,381.694 107.598,383.458 107.625 M331.399 113.667 C 331.399 114.904,331.425 115.410,331.457 114.792 C 331.489 114.173,331.489 113.160,331.457 112.542 C 331.425 111.923,331.399 112.429,331.399 113.667 M174.909 119.083 C 174.909 122.567,174.931 124.015,174.958 122.303 C 174.985 120.590,174.985 117.740,174.958 115.969 C 174.931 114.199,174.909 115.600,174.909 119.083 M386.127 115.618 C 386.334 115.658,386.634 115.656,386.794 115.615 C 386.953 115.573,386.783 115.540,386.417 115.542 C 386.050 115.544,385.920 115.578,386.127 115.618 M328.879 116.500 C 328.879 116.912,328.911 117.081,328.951 116.875 C 328.991 116.669,328.991 116.331,328.951 116.125 C 328.911 115.919,328.879 116.087,328.879 116.500 M337.545 116.500 C 337.545 116.912,337.578 117.081,337.618 116.875 C 337.657 116.669,337.657 116.331,337.618 116.125 C 337.578 115.919,337.545 116.087,337.545 116.500 M138.417 118.667 C 137.044 120.042,135.958 121.167,136.004 121.167 C 136.050 121.167,137.211 120.042,138.583 118.667 C 139.956 117.292,141.042 116.167,140.996 116.167 C 140.950 116.167,139.789 117.292,138.417 118.667 M163.917 118.667 C 165.289 120.042,166.450 121.167,166.496 121.167 C 166.542 121.167,165.456 120.042,164.083 118.667 C 162.711 117.292,161.550 116.167,161.504 116.167 C 161.458 116.167,162.544 117.292,163.917 118.667 M331.403 120.333 C 331.403 122.029,331.427 122.723,331.458 121.875 C 331.488 121.027,331.488 119.640,331.458 118.792 C 331.427 117.944,331.403 118.638,331.403 120.333 M184.050 119.167 C 184.050 119.671,184.081 119.877,184.119 119.625 C 184.158 119.373,184.158 118.960,184.119 118.708 C 184.081 118.456,184.050 118.662,184.050 119.167 M251.372 119.000 C 251.372 119.321,251.406 119.452,251.448 119.292 C 251.490 119.131,251.490 118.869,251.448 118.708 C 251.406 118.548,251.372 118.679,251.372 119.000 M324.571 123.000 C 324.571 125.063,324.595 125.906,324.624 124.875 C 324.654 123.844,324.654 122.156,324.624 121.125 C 324.595 120.094,324.571 120.938,324.571 123.000 M251.381 120.417 C 251.382 120.875,251.415 121.043,251.453 120.789 C 251.491 120.536,251.490 120.161,251.451 119.956 C 251.411 119.751,251.380 119.958,251.381 120.417 M296.070 123.500 C 296.070 125.287,296.094 126.019,296.124 125.125 C 296.154 124.231,296.154 122.769,296.124 121.875 C 296.094 120.981,296.070 121.712,296.070 123.500 M248.883 121.333 C 248.883 121.837,248.915 122.044,248.953 121.792 C 248.991 121.540,248.991 121.127,248.953 120.875 C 248.915 120.623,248.883 120.829,248.883 121.333 M251.381 122.083 C 251.382 122.542,251.415 122.709,251.453 122.456 C 251.491 122.203,251.490 121.828,251.451 121.623 C 251.411 121.418,251.380 121.625,251.381 122.083 M251.375 123.583 C 251.377 123.950,251.411 124.080,251.451 123.873 C 251.491 123.666,251.490 123.366,251.448 123.206 C 251.406 123.047,251.374 123.217,251.375 123.583 M191.211 126.953 C 191.464 126.991,191.839 126.990,192.044 126.951 C 192.249 126.911,192.042 126.880,191.583 126.881 C 191.125 126.882,190.957 126.915,191.211 126.953 M217.211 126.953 C 217.464 126.991,217.839 126.990,218.044 126.951 C 218.249 126.911,218.042 126.880,217.583 126.881 C 217.125 126.882,216.957 126.915,217.211 126.953 M242.960 126.951 C 243.168 126.991,243.468 126.990,243.627 126.948 C 243.786 126.906,243.617 126.874,243.250 126.875 C 242.883 126.877,242.753 126.911,242.960 126.951 M255.794 126.951 C 256.001 126.991,256.301 126.990,256.460 126.948 C 256.620 126.906,256.450 126.874,256.083 126.875 C 255.717 126.877,255.586 126.911,255.794 126.951 M268.792 126.951 C 268.998 126.991,269.335 126.991,269.542 126.951 C 269.748 126.911,269.579 126.879,269.167 126.879 C 268.754 126.879,268.585 126.911,268.792 126.951 M282.377 126.953 C 282.631 126.991,283.006 126.990,283.211 126.951 C 283.416 126.911,283.208 126.880,282.750 126.881 C 282.292 126.882,282.124 126.915,282.377 126.953 M308.377 126.953 C 308.631 126.991,309.006 126.990,309.211 126.951 C 309.416 126.911,309.208 126.880,308.750 126.881 C 308.292 126.882,308.124 126.915,308.377 126.953 M335.125 126.951 C 335.331 126.991,335.669 126.991,335.875 126.951 C 336.081 126.911,335.912 126.879,335.500 126.879 C 335.087 126.879,334.919 126.911,335.125 126.951 M373.377 126.953 C 373.631 126.991,374.006 126.990,374.211 126.951 C 374.416 126.911,374.208 126.880,373.750 126.881 C 373.292 126.882,373.124 126.915,373.377 126.953 M251.398 129.000 C 251.398 130.146,251.424 130.615,251.457 130.042 C 251.489 129.469,251.489 128.531,251.457 127.958 C 251.424 127.385,251.398 127.854,251.398 129.000 " stroke="none" fill="#7c7cc0" fill-rule="evenodd"></path></g></svg>